<svg width="148" height="134" viewBox="0 0 148 134" fill="none" xmlns="http://www.w3.org/2000/svg">
<path d="M52.8483 67.4555H52.9188M95.1519 67.4555H95.2225M59.8989 95.6579C63.4242 97.7731 68.3596 99.1832 74.0001 99.1832C79.6406 99.1832 84.576 97.7731 88.1013 95.6579M123.354 27.267C129.742 35.2742 134.096 44.7086 136.045 54.7644C138.43 55.9191 140.44 57.7219 141.847 59.9665C143.254 62.211 144 64.8065 144 67.4555C144 70.1045 143.254 72.6999 141.847 74.9445C140.44 77.189 138.43 78.9919 136.045 80.1466C133.002 94.3428 125.182 107.066 113.89 116.193C102.599 125.32 88.519 130.299 74.0001 130.299C59.4812 130.299 45.4014 125.32 34.11 116.193C22.8186 107.066 14.9986 94.3428 11.9548 80.1466C9.57065 78.9919 7.56001 77.189 6.15315 74.9445C4.74629 72.6999 4.00012 70.1045 4.00012 67.4555C4.00012 64.8065 4.74629 62.211 6.15315 59.9665C7.56001 57.7219 9.57065 55.9191 11.9548 54.7644C14.8756 40.4552 22.6427 27.5915 33.9458 18.3435C45.2489 9.09556 59.3959 4.02948 74.0001 4C88.1013 4 98.6773 11.7557 98.6773 21.6265C98.6773 31.4974 92.3317 39.253 84.576 39.253C78.9355 39.253 74.0001 36.4328 74.0001 32.2024" stroke="#B94C7B" stroke-width="7" stroke-linecap="round" stroke-linejoin="round"/>
</svg>
