<svg width="138" height="138" viewBox="0 0 138 138" fill="none" xmlns="http://www.w3.org/2000/svg">
<path d="M95 43V75.5C95 80.6717 97.0545 85.6316 100.711 89.2886C104.368 92.9456 109.328 95 114.5 95C119.672 95 124.632 92.9456 128.289 89.2886C131.946 85.6316 134 80.6717 134 75.5V69C134 54.3575 129.056 40.1439 119.969 28.6621C110.882 17.1803 98.1848 9.10303 83.934 5.73887C69.6832 2.37471 54.7139 3.9208 41.4515 10.1266C28.1892 16.3325 17.4106 26.8345 10.8623 39.9312C4.31398 53.0278 2.37948 67.9518 5.37223 82.2853C8.36499 96.6187 16.1097 109.522 27.3515 118.904C38.5933 128.286 52.6736 133.598 67.3112 133.978C81.9488 134.358 96.286 129.786 108 121M95 69C95 83.3594 83.3594 95 69 95C54.6406 95 43.0001 83.3594 43.0001 69C43.0001 54.6406 54.6406 43 69 43C83.3594 43 95 54.6406 95 69Z" stroke="#B94C7B" stroke-width="7" stroke-linecap="round" stroke-linejoin="round"/>
</svg>
