<svg width="122" height="130" viewBox="0 0 122 130" fill="none" xmlns="http://www.w3.org/2000/svg">
<path d="M26.8001 125.6H102.8M49.6001 125.6C91.4001 106.6 55.6801 76.96 72.4001 49.6M72.4001 49.6C72.0511 38.8547 74.9658 28.2558 80.7601 19.2C87.6001 11.6 97.4801 4.76 118 4C117.24 21.48 112.68 31.36 105.08 38.96C97.4801 45.04 86.8401 48.84 72.4001 49.6ZM45.8001 45.04C54.1601 51.12 59.4801 61.76 63.2801 73.16C48.0801 76.2 36.6801 76.2 26.8001 70.88C17.6801 66.32 9.32012 56.44 4.00012 38.96C25.2801 35.16 37.4401 38.96 45.8001 45.04Z" stroke="#B94C7B" stroke-width="7" stroke-linecap="round" stroke-linejoin="round"/>
</svg>
