<svg width="196" height="168" viewBox="0 0 196 168" fill="none" xmlns="http://www.w3.org/2000/svg">
<path d="M192 88.7059V22.8235C192 17.8312 190.019 13.0434 186.494 9.51328C182.968 5.98319 178.186 4 173.2 4H22.8C17.8139 4 13.0321 5.98319 9.50639 9.51328C5.98071 13.0434 4 17.8312 4 22.8235V135.765C4 146.118 12.46 154.588 22.8 154.588H98M192 32.2353L107.682 85.8824C104.78 87.7028 101.425 88.6683 98 88.6683C94.5754 88.6683 91.22 87.7028 88.318 85.8824L4 32.2353M135.6 145.176L154.4 164L192 126.353" stroke="#B94C7B" stroke-width="7" stroke-linecap="round" stroke-linejoin="round"/>
</svg>
