<svg width="134" height="134" viewBox="0 0 134 134" fill="none" xmlns="http://www.w3.org/2000/svg">
<path d="M49.3947 49.3316H49.4577M82.7789 51.2213L51.2844 82.7158M84.0386 84.6054H84.1016M8.45184 56.2604C7.04057 57.6702 5.921 59.3444 5.15715 61.1871C4.39329 63.0299 4.00012 65.0052 4.00012 67C4.00012 68.9948 4.39329 70.9701 5.15715 72.8129C5.921 74.6556 7.04057 76.3298 8.45184 77.7396L56.2605 125.548C57.6703 126.96 59.3445 128.079 61.1873 128.843C63.03 129.607 65.0053 130 67.0001 130C68.9949 130 70.9702 129.607 72.813 128.843C74.6558 128.079 76.3299 126.96 77.7397 125.548L125.548 77.7396C126.96 76.3298 128.079 74.6556 128.843 72.8129C129.607 70.9701 130 68.9948 130 67C130 65.0052 129.607 63.0299 128.843 61.1871C128.079 59.3444 126.96 57.6702 125.548 56.2604L77.7397 8.45172C76.3299 7.04045 74.6558 5.92088 72.813 5.15702C70.9702 4.39317 68.9949 4 67.0001 4C65.0053 4 63.03 4.39317 61.1873 5.15702C59.3445 5.92088 57.6703 7.04045 56.2605 8.45172L8.45184 56.2604Z" stroke="#B94C7B" stroke-width="7" stroke-linecap="round" stroke-linejoin="round"/>
</svg>
