<svg width="152" height="168" viewBox="0 0 152 168" fill="none" xmlns="http://www.w3.org/2000/svg">
<path d="M76 164V83.9918M76 83.9918L6.32 43.9877M76 83.9918L145.68 43.9877M40 22.1455L112 63.3497M68 161.84C70.4323 163.244 73.1914 163.984 76 163.984C78.8086 163.984 81.5677 163.244 84 161.84L140 129.836C142.43 128.433 144.448 126.416 145.852 123.987C147.256 121.557 147.997 118.801 148 115.995V51.9885C147.997 49.1824 147.256 46.4264 145.852 43.997C144.448 41.5676 142.43 39.5501 140 38.1471L84 6.14381C81.5677 4.73938 78.8086 4 76 4C73.1914 4 70.4323 4.73938 68 6.14381L12 38.1471C9.5701 39.5501 7.55184 41.5676 6.14769 43.997C4.74354 46.4264 4.00288 49.1824 4 51.9885V115.995C4.00288 118.801 4.74354 121.557 6.14769 123.987C7.55184 126.416 9.5701 128.433 12 129.836L68 161.84Z" stroke="#B94C7B" stroke-width="7" stroke-linecap="round" stroke-linejoin="round"/>
</svg>
