<svg width="158" height="128" viewBox="0 0 158 128" fill="none" xmlns="http://www.w3.org/2000/svg">
<path d="M94.0001 109V19C94.0001 15.0218 92.4198 11.2064 89.6067 8.3934C86.7937 5.58035 82.9784 4 79.0001 4H19.0001C15.0219 4 11.2066 5.58035 8.39352 8.3934C5.58047 11.2064 4.00012 15.0218 4.00012 19V101.5C4.00012 103.489 4.7903 105.397 6.19682 106.803C7.60334 108.21 9.511 109 11.5001 109H26.5001M26.5001 109C26.5001 117.284 33.2159 124 41.5001 124C49.7844 124 56.5001 117.284 56.5001 109M26.5001 109C26.5001 100.716 33.2159 94 41.5001 94C49.7844 94 56.5001 100.716 56.5001 109M101.5 109H56.5001M101.5 109C101.5 117.284 108.216 124 116.5 124C124.784 124 131.5 117.284 131.5 109M101.5 109C101.5 100.716 108.216 94 116.5 94C124.784 94 131.5 100.716 131.5 109M131.5 109H146.5C148.489 109 150.397 108.21 151.803 106.803C153.21 105.397 154 103.489 154 101.5V74.125C153.997 72.423 153.415 70.7726 152.35 69.445L126.25 36.82C125.549 35.9416 124.659 35.2321 123.646 34.744C122.634 34.2559 121.524 34.0016 120.4 34H94.0001" stroke="#B94C7B" stroke-width="7" stroke-linecap="round" stroke-linejoin="round"/>
</svg>
