<svg width="138" height="138" viewBox="0 0 138 138" fill="none" xmlns="http://www.w3.org/2000/svg">
<path d="M133.996 101.33V120.9C134.003 122.717 133.63 124.515 132.901 126.18C132.172 127.845 131.102 129.339 129.761 130.567C128.42 131.795 126.836 132.73 125.111 133.312C123.387 133.894 121.56 134.111 119.747 133.947C99.6332 131.766 80.3128 124.907 63.3379 113.92C47.5449 103.905 34.1552 90.5414 24.1197 74.7797C13.0731 57.7614 6.19857 38.3855 4.05305 18.2217C3.88971 16.4177 4.10453 14.5996 4.68382 12.8831C5.2631 11.1665 6.19418 9.58917 7.41775 8.25143C8.64133 6.91368 10.1306 5.84486 11.7907 5.11302C13.4509 4.38117 15.2455 4.00234 17.0604 4.00063H36.6695C39.8417 3.96947 42.9169 5.09056 45.3221 7.15492C47.7273 9.21928 49.2983 12.0861 49.7422 15.2209C50.5699 21.4838 52.1048 27.6332 54.3177 33.5517C55.1971 35.8866 55.3875 38.4241 54.8661 40.8637C54.3448 43.3032 53.1337 45.5425 51.3763 47.3161L43.0751 55.6008C52.38 71.9325 65.9292 85.4549 82.2933 94.7413L90.5945 86.4566C92.3717 84.7027 94.6154 83.494 97.0598 82.9737C99.5041 82.4534 102.047 82.6434 104.386 83.5211C110.317 85.7296 116.478 87.2614 122.753 88.0874C125.929 88.5345 128.828 90.1306 130.901 92.5723C132.974 95.0139 134.076 98.1307 133.996 101.33Z" stroke="#B94C7B" stroke-width="7" stroke-linecap="round" stroke-linejoin="round"/>
</svg>
