<svg width="140" height="116" viewBox="0 0 140 116" fill="none" xmlns="http://www.w3.org/2000/svg">
<path d="M131.05 0.93528L6.50885 48.3259C-1.8958 51.3348 -1.8958 56.6004 4.98073 58.1049L36.3071 67.8839L48.5321 103.991C50.0602 107.752 49.2961 109.257 53.1164 109.257C56.1727 109.257 57.7008 107.752 59.2289 106.248C59.993 105.496 66.8695 98.7254 74.5101 91.2031L106.601 114.522C112.713 117.531 116.533 116.027 118.061 109.257L139.455 10.7143C141.747 2.43974 136.399 -2.07365 131.05 0.93528ZM115.005 23.5022L55.4086 76.9107L53.1164 101.734L40.8915 65.6272L111.185 21.9978C114.241 19.7411 117.297 21.2455 115.005 23.5022Z" fill="#B94C7B"/>
</svg>
