<svg width="539" height="710" viewBox="0 0 539 710" fill="none" xmlns="http://www.w3.org/2000/svg">
<g clip-path="url(#clip0_80_3)">
<path d="M1248 358C1248 702.626 968.626 982 624 982C279.374 982 0 702.626 0 358C0 13.3743 279.374 -266 624 -266C968.626 -266 1248 13.3743 1248 358Z" fill="#C270AA"/>
<path d="M1158 358C1158 652.92 918.92 892 624 892C329.08 892 90 652.92 90 358C90 63.08 329.08 -176 624 -176C918.92 -176 1158 63.08 1158 358Z" fill="#B94C7B"/>
<path d="M1068 358C1068 603.214 869.214 802 624 802C378.786 802 180 603.214 180 358C180 112.786 378.786 -86 624 -86C869.214 -86 1068 112.786 1068 358Z" fill="#793351"/>
<path d="M352.459 313.049C368.829 303.051 389.437 303.051 405.807 313.049L456.189 343.82C477.213 356.661 486.041 382.647 477.173 405.589L461.793 445.381C454.196 465.036 435.254 478 414.134 478H344.131C323.011 478 304.07 465.036 296.473 445.381L281.093 405.589C272.225 382.647 281.053 356.661 302.077 343.82L352.459 313.049Z" fill="#C270AA"/>
<path d="M357.01 340.078C370.011 332.236 386.301 332.236 399.302 340.078L430.458 358.872C447.463 369.129 454.603 390.1 447.377 408.564L438.814 430.444C432.693 446.084 417.582 456.38 400.749 456.38H355.562C338.729 456.38 323.618 446.084 317.497 430.444L308.934 408.564C301.708 390.1 308.849 369.129 325.853 358.872L357.01 340.078Z" fill="#B94C7B"/>
<path d="M304.713 290.659C315.893 306.071 314.641 326.009 301.915 335.192C289.189 344.375 269.81 339.325 258.63 323.913C247.45 308.501 248.703 288.563 261.428 279.38C274.154 270.197 293.533 275.247 304.713 290.659Z" fill="#B94C7B"/>
<path d="M369.319 262.323C376.744 279.844 371.035 298.993 356.568 305.092C342.1 311.191 324.352 301.931 316.926 284.409C309.5 266.887 315.209 247.739 329.677 241.64C344.145 235.54 361.893 244.801 369.319 262.323Z" fill="#B94C7B"/>
<path d="M388.196 260.559C380.77 278.081 386.479 297.23 400.947 303.329C415.415 309.428 433.163 300.168 440.588 282.646C448.014 265.124 442.305 245.975 427.837 239.876C413.369 233.777 395.621 243.037 388.196 260.559Z" fill="#B94C7B"/>
<path d="M456.287 290.701C445.107 306.113 446.359 326.051 459.085 335.234C471.811 344.417 491.19 339.368 502.37 323.956C513.55 308.543 512.297 288.605 499.572 279.422C486.846 270.239 467.467 275.289 456.287 290.701Z" fill="#B94C7B"/>
</g>
<defs>
<clipPath id="clip0_80_3">
<rect width="539" height="710" fill="white"/>
</clipPath>
</defs>
</svg>
