<svg width="242" height="54" viewBox="0 0 242 54" fill="none" xmlns="http://www.w3.org/2000/svg">
<path d="M66.088 47.578C65.9067 47.102 65.7593 46.5013 65.646 45.776C65.5327 45.0507 65.4647 44.3027 65.442 43.532C65.442 42.7387 65.4647 41.9793 65.51 41.254C65.578 40.5287 65.6913 39.928 65.85 39.452C66.2127 39.316 66.564 39.0893 66.904 38.772C67.244 38.432 67.5273 37.8993 67.754 37.174C67.9807 36.426 68.094 35.3833 68.094 34.046C68.094 32.5953 67.958 31.5073 67.686 30.782C67.4367 30.034 67.1307 29.5353 66.768 29.286C66.428 29.014 66.122 28.878 65.85 28.878C65.646 28.47 65.4987 27.9147 65.408 27.212C65.3173 26.5093 65.272 25.7613 65.272 24.968C65.2947 24.152 65.3627 23.37 65.476 22.622C65.5893 21.8513 65.7593 21.194 65.986 20.65C67.482 20.65 69.7147 20.7407 72.684 20.922C75.6533 21.0807 79.3253 21.16 83.7 21.16C88.1427 21.16 91.724 21.0807 94.444 20.922C97.164 20.7407 99.2833 20.65 100.802 20.65C101.029 21.194 101.199 21.8513 101.312 22.622C101.425 23.37 101.482 24.152 101.482 24.968C101.505 25.7613 101.471 26.5093 101.38 27.212C101.289 27.9147 101.142 28.47 100.938 28.878C100.666 28.878 100.349 29.014 99.986 29.286C99.646 29.5353 99.34 30.034 99.068 30.782C98.8187 31.5073 98.694 32.5953 98.694 34.046C98.694 35.3833 98.8073 36.426 99.034 37.174C99.2607 37.8993 99.544 38.432 99.884 38.772C100.224 39.0893 100.575 39.316 100.938 39.452C101.097 39.928 101.199 40.5287 101.244 41.254C101.312 41.9793 101.335 42.7387 101.312 43.532C101.312 44.3027 101.255 45.0507 101.142 45.776C101.029 46.5013 100.881 47.102 100.7 47.578C99.7707 47.4873 98.6373 47.374 97.3 47.238C95.9853 47.102 94.3193 47.034 92.302 47.034C90.738 47.034 89.242 47.102 87.814 47.238C86.4087 47.374 85.2413 47.4873 84.312 47.578C84.0173 46.5127 83.836 45.2433 83.768 43.77C83.7 42.274 83.8133 40.5967 84.108 38.738V32.074H82.68V38.738C82.9293 40.5967 83.0313 42.274 82.986 43.77C82.9633 45.2433 82.816 46.5127 82.544 47.578C81.932 47.51 81.2747 47.4307 80.572 47.34C79.892 47.272 79.0873 47.204 78.158 47.136C77.2287 47.068 76.0953 47.034 74.758 47.034C72.922 47.034 71.2673 47.0907 69.794 47.204C68.3207 47.34 67.0853 47.4647 66.088 47.578ZM110.237 51.152C108.557 51.152 107.189 51.008 106.133 50.72C105.077 50.432 104.261 50.048 103.685 49.568C103.125 49.104 102.733 48.592 102.509 48.032C102.301 47.488 102.197 46.944 102.197 46.4C102.197 45.408 102.405 44.6 102.821 43.976C103.253 43.352 103.813 42.896 104.501 42.608C105.205 42.304 105.973 42.152 106.805 42.152C107.157 42.152 107.557 42.2 108.005 42.296C108.469 42.392 108.933 42.568 109.397 42.824C109.861 43.064 110.277 43.424 110.645 43.904L111.173 43.472C110.677 42.864 110.117 42.4 109.493 42.08C108.869 41.76 108.237 41.568 107.597 41.504C107.133 41.456 106.693 41.336 106.277 41.144C105.861 40.952 105.485 40.624 105.149 40.16C104.813 39.696 104.533 39.048 104.309 38.216C104.069 37.32 103.773 36.688 103.421 36.32C103.085 35.936 102.725 35.736 102.341 35.72C102.213 35.448 102.117 35.064 102.053 34.568C101.989 34.056 101.957 33.512 101.957 32.936C101.973 32.344 102.021 31.776 102.101 31.232C102.181 30.688 102.293 30.24 102.437 29.888C103.045 29.936 103.901 30 105.005 30.08C106.125 30.16 107.373 30.2 108.749 30.2C109.789 30.2 110.797 30.16 111.773 30.08C112.765 30 113.565 29.936 114.173 29.888C113.917 30.928 113.813 32.056 113.861 33.272C113.925 34.488 114.101 35.72 114.389 36.968C114.677 38.216 115.021 39.416 115.421 40.568L115.397 35.576H114.725C114.549 34.392 114.493 33.32 114.557 32.36C114.621 31.4 114.741 30.576 114.917 29.888C115.333 29.936 115.773 29.984 116.237 30.032C116.717 30.08 117.317 30.12 118.037 30.152C118.757 30.184 119.685 30.2 120.821 30.2C121.301 30.2 121.845 30.184 122.453 30.152C123.077 30.104 123.685 30.056 124.277 30.008C124.885 29.96 125.389 29.92 125.789 29.888C125.933 30.24 126.037 30.688 126.101 31.232C126.181 31.776 126.221 32.344 126.221 32.936C126.221 33.512 126.189 34.056 126.125 34.568C126.061 35.064 125.965 35.448 125.837 35.72C125.357 35.736 124.989 35.968 124.733 36.416C124.477 36.864 124.261 37.472 124.085 38.24C123.925 38.992 123.725 39.84 123.485 40.784C123.085 42.624 122.565 44.2 121.925 45.512C121.285 46.824 120.461 47.896 119.453 48.728C118.445 49.56 117.189 50.168 115.685 50.552C114.197 50.952 112.381 51.152 110.237 51.152ZM127.046 47.408C126.886 46.896 126.766 46.288 126.686 45.584C126.622 44.88 126.606 44.176 126.638 43.472C126.67 42.768 126.75 42.184 126.878 41.72C127.246 41.624 127.582 41.376 127.886 40.976C128.19 40.56 128.342 39.872 128.342 38.912C128.342 38.096 128.254 37.464 128.078 37.016C127.918 36.552 127.734 36.224 127.526 36.032C127.318 35.84 127.134 35.736 126.974 35.72C126.814 35.192 126.702 34.568 126.638 33.848C126.59 33.112 126.598 32.384 126.662 31.664C126.742 30.944 126.878 30.352 127.07 29.888C127.742 29.92 128.806 30 130.262 30.128C131.718 30.24 133.558 30.296 135.782 30.296C138.15 30.296 140.134 30.24 141.734 30.128C143.35 30.016 144.502 29.96 145.19 29.96C145.27 30.28 145.334 30.76 145.382 31.4C145.446 32.04 145.494 32.768 145.526 33.584C145.558 34.384 145.574 35.208 145.574 36.056C145.574 36.904 145.55 37.712 145.502 38.48C145.454 39.232 145.39 39.872 145.31 40.4C143.022 40.736 140.886 40.736 138.902 40.4C138.79 39.104 138.766 37.952 138.83 36.944H138.086V38.888C138.086 39.608 138.15 40.16 138.278 40.544C138.422 40.912 138.646 41.184 138.95 41.36C139.254 41.52 139.646 41.648 140.126 41.744C140.27 42.208 140.358 42.792 140.39 43.496C140.422 44.184 140.406 44.88 140.342 45.584C140.278 46.288 140.158 46.896 139.982 47.408C139.47 47.36 138.918 47.304 138.326 47.24C137.75 47.192 137.062 47.144 136.262 47.096C135.478 47.064 134.502 47.048 133.334 47.048C131.926 47.048 130.686 47.088 129.614 47.168C128.558 47.248 127.702 47.328 127.046 47.408ZM156.966 47.84C149.654 47.84 145.998 44.864 145.998 38.912C145.998 35.664 146.918 33.28 148.758 31.76C150.614 30.24 153.39 29.48 157.086 29.48C161.006 29.48 163.854 30.232 165.63 31.736C167.422 33.224 168.318 35.424 168.318 38.336C168.318 41.616 167.374 44.024 165.486 45.56C163.598 47.08 160.758 47.84 156.966 47.84ZM156.51 39.968H157.806V37.352H156.51V39.968ZM182.682 47.552C181.37 47.552 180.17 47.528 179.082 47.48C178.01 47.432 176.962 47.384 175.938 47.336C174.93 47.304 173.858 47.28 172.722 47.264C171.586 47.264 170.306 47.312 168.882 47.408C168.722 46.896 168.602 46.288 168.522 45.584C168.458 44.88 168.442 44.176 168.474 43.472C168.506 42.768 168.586 42.184 168.714 41.72C169.082 41.624 169.418 41.376 169.722 40.976C170.026 40.56 170.178 39.872 170.178 38.912C170.178 38.096 170.09 37.464 169.914 37.016C169.754 36.552 169.57 36.224 169.362 36.032C169.154 35.84 168.97 35.736 168.81 35.72C168.65 35.192 168.538 34.568 168.474 33.848C168.426 33.112 168.434 32.384 168.498 31.664C168.578 30.944 168.714 30.352 168.906 29.888C170.17 29.968 171.346 30.016 172.434 30.032C173.538 30.032 174.61 30.024 175.65 30.008C176.69 29.976 177.746 29.944 178.818 29.912C179.89 29.88 181.026 29.864 182.226 29.864C183.506 29.864 184.674 29.92 185.73 30.032C186.802 30.144 187.73 30.368 188.514 30.704C189.298 31.04 189.906 31.544 190.338 32.216C190.77 32.872 190.986 33.744 190.986 34.832C190.986 35.488 190.834 36.112 190.53 36.704C190.242 37.296 189.842 37.84 189.33 38.336C190.21 38.848 190.81 39.424 191.13 40.064C191.466 40.688 191.634 41.376 191.634 42.128C191.634 42.96 191.498 43.712 191.226 44.384C190.954 45.056 190.482 45.632 189.81 46.112C189.154 46.576 188.242 46.928 187.074 47.168C185.922 47.424 184.458 47.552 182.682 47.552ZM179.442 37.376H180.93V36.128H179.442V37.376ZM179.442 40.976H181.05V39.776H179.442V40.976ZM192.508 47.408C192.348 46.896 192.228 46.288 192.148 45.584C192.084 44.88 192.068 44.176 192.1 43.472C192.132 42.768 192.212 42.184 192.34 41.72C192.708 41.624 193.052 41.368 193.372 40.952C193.708 40.536 193.876 39.848 193.876 38.888C193.876 38.072 193.78 37.44 193.588 36.992C193.412 36.544 193.204 36.224 192.964 36.032C192.74 35.84 192.548 35.736 192.388 35.72C192.228 35.192 192.116 34.568 192.052 33.848C192.004 33.112 192.012 32.384 192.076 31.664C192.156 30.944 192.292 30.352 192.484 29.888C193.236 29.984 194.108 30.072 195.1 30.152C196.108 30.216 197.052 30.248 197.932 30.248C199.292 30.248 200.556 30.216 201.724 30.152C202.908 30.072 203.836 30 204.508 29.936C204.62 30.656 204.652 31.312 204.604 31.904C204.556 32.48 204.468 33.032 204.34 33.56C204.228 34.088 204.116 34.64 204.004 35.216C203.908 35.776 203.86 36.4 203.86 37.088C204.388 36.32 204.78 35.352 205.036 34.184C205.308 33 205.428 31.544 205.396 29.816C205.844 29.848 206.324 29.896 206.836 29.96C207.364 30.024 208.012 30.08 208.78 30.128C209.548 30.176 210.508 30.2 211.66 30.2C212.604 30.2 213.38 30.176 213.988 30.128C214.596 30.08 215.124 30.032 215.572 29.984C216.036 29.92 216.532 29.864 217.06 29.816C217.188 30.152 217.292 30.576 217.372 31.088C217.452 31.584 217.492 32.112 217.492 32.672C217.508 33.232 217.492 33.768 217.444 34.28C217.412 34.776 217.34 35.192 217.228 35.528C216.428 35.752 215.74 36 215.164 36.272C214.604 36.544 214.1 36.84 213.652 37.16C214.052 38.376 214.604 39.344 215.308 40.064C216.028 40.768 216.788 41.328 217.588 41.744C217.7 42.064 217.772 42.472 217.804 42.968C217.852 43.464 217.868 43.992 217.852 44.552C217.852 45.096 217.812 45.624 217.732 46.136C217.652 46.648 217.548 47.072 217.42 47.408C216.764 47.344 216.036 47.264 215.236 47.168C214.436 47.072 213.444 47.024 212.26 47.024C210.948 47.024 209.876 47.048 209.044 47.096C208.212 47.144 207.524 47.192 206.98 47.24C206.452 47.304 205.964 47.36 205.516 47.408C205.564 46.832 205.604 46.304 205.636 45.824C205.668 45.328 205.684 44.872 205.684 44.456C205.684 43.784 205.652 43.168 205.588 42.608C205.524 42.048 205.364 41.52 205.108 41.024C204.852 40.528 204.436 40.048 203.86 39.584V41.744H204.724C204.836 42.064 204.908 42.48 204.94 42.992C204.988 43.488 205.004 44.016 204.988 44.576C204.988 45.136 204.948 45.672 204.868 46.184C204.788 46.68 204.684 47.088 204.556 47.408C203.884 47.344 203.044 47.264 202.036 47.168C201.044 47.088 199.988 47.048 198.868 47.048C197.284 47.048 195.98 47.088 194.956 47.168C193.948 47.248 193.132 47.328 192.508 47.408ZM225.863 47.816C223.943 47.816 222.423 47.568 221.303 47.072C220.199 46.576 219.407 45.928 218.927 45.128C218.447 44.328 218.207 43.464 218.207 42.536C218.207 41.128 218.703 39.984 219.695 39.104C220.687 38.224 222.271 37.776 224.447 37.76L229.535 37.712V36.44H228.215V37.088C226.583 37.152 224.975 37.216 223.391 37.28C221.807 37.344 220.231 37.32 218.663 37.208C218.263 34.712 218.303 32.296 218.783 29.96C219.247 29.96 219.807 29.968 220.463 29.984C221.135 30 221.839 30.024 222.575 30.056C223.327 30.072 224.063 30.088 224.783 30.104C225.503 30.12 226.143 30.136 226.703 30.152C226.495 30.632 226.375 31.112 226.343 31.592C226.327 32.072 226.399 32.536 226.559 32.984C226.639 31.656 227.143 30.736 228.071 30.224C228.999 29.712 230.311 29.456 232.007 29.456C234.199 29.456 235.879 29.776 237.047 30.416C238.215 31.04 238.991 31.976 239.375 33.224C239.567 33.816 239.647 34.456 239.615 35.144C239.599 35.816 239.551 36.472 239.471 37.112C239.391 37.752 239.351 38.328 239.351 38.84C239.351 39.816 239.503 40.512 239.807 40.928C240.127 41.328 240.463 41.592 240.815 41.72C240.959 42.184 241.039 42.768 241.055 43.472C241.087 44.176 241.071 44.88 241.007 45.584C240.943 46.288 240.831 46.896 240.671 47.408C239.967 47.568 239.231 47.672 238.463 47.72C237.695 47.784 237.071 47.816 236.591 47.816C235.375 47.816 234.423 47.672 233.735 47.384C233.047 47.096 232.703 46.568 232.703 45.8C232.703 45.528 232.751 45.24 232.847 44.936C232.959 44.632 233.087 44.304 233.231 43.952L232.607 43.64C232.319 44.344 231.919 45.016 231.407 45.656C230.911 46.296 230.215 46.816 229.319 47.216C228.439 47.616 227.287 47.816 225.863 47.816ZM228.215 40.784H229.535V39.272H228.215V40.784Z" fill="#B94C7B"/>
<path d="M21.5453 15.9479C25.0215 13.8233 29.3978 13.8233 32.8741 15.9479L43.5729 22.4868C48.0374 25.2154 49.9121 30.7374 48.029 35.6127L44.763 44.0684C43.1498 48.2451 39.1274 51 34.6424 51H19.7769C15.292 51 11.2696 48.2451 9.65637 44.0684L6.39035 35.6127C4.50729 30.7374 6.38196 25.2154 10.8465 22.4868L21.5453 15.9479Z" fill="#C270AA"/>
<path d="M22.5117 21.6916C25.2725 20.0252 28.7318 20.0252 31.4926 21.6916L38.1089 25.6852C41.7199 27.8649 43.2362 32.3213 41.7017 36.2448L39.8833 40.8944C38.5835 44.2178 35.3746 46.4057 31.8 46.4057H22.2043C18.6297 46.4057 15.4209 44.2178 14.1211 40.8944L12.3027 36.2448C10.7682 32.3213 12.2844 27.8649 15.8955 25.6852L22.5117 21.6916Z" fill="#B94C7B"/>
<path d="M11.4063 11.19C13.7805 14.465 13.5144 18.7019 10.812 20.6533C8.10969 22.6047 3.99437 21.5316 1.62021 18.2566C-0.75394 14.9815 -0.48788 10.7447 2.21447 8.79327C4.91683 6.84189 9.03215 7.91493 11.4063 11.19Z" fill="#B94C7B"/>
<path d="M25.1256 5.16853C26.7024 8.89195 25.4901 12.9611 22.4178 14.2571C19.3455 15.5532 15.5766 13.5854 13.9997 9.86201C12.4229 6.13859 13.6352 2.06949 16.7075 0.773421C19.7798 -0.522649 23.5487 1.44511 25.1256 5.16853Z" fill="#B94C7B"/>
<path d="M29.1342 4.79381C27.5574 8.51723 28.7697 12.5863 31.842 13.8824C34.9143 15.1785 38.6832 13.2107 40.2601 9.4873C41.8369 5.76388 40.6246 1.69477 37.5523 0.398704C34.48 -0.897366 30.7111 1.07039 29.1342 4.79381Z" fill="#B94C7B"/>
<path d="M43.5937 11.1989C41.2195 14.474 41.4856 18.7109 44.188 20.6623C46.8903 22.6136 51.0056 21.5406 53.3798 18.2655C55.7539 14.9905 55.4879 10.7536 52.7855 8.80223C50.0832 6.85085 45.9678 7.92389 43.5937 11.1989Z" fill="#B94C7B"/>
</svg>
