<svg width="55" height="51" viewBox="0 0 55 51" fill="none" xmlns="http://www.w3.org/2000/svg">
<path d="M21.5453 15.9479C25.0215 13.8233 29.3978 13.8233 32.8741 15.9479L43.5729 22.4868C48.0374 25.2154 49.9121 30.7374 48.029 35.6127L44.763 44.0684C43.1498 48.2451 39.1274 51 34.6424 51H19.7769C15.292 51 11.2696 48.2451 9.65637 44.0684L6.39035 35.6127C4.50729 30.7374 6.38196 25.2154 10.8465 22.4868L21.5453 15.9479Z" fill="#C270AA"/>
<path d="M22.5117 21.6916C25.2725 20.0252 28.7318 20.0252 31.4926 21.6916L38.1089 25.6852C41.7199 27.8649 43.2362 32.3213 41.7017 36.2448L39.8833 40.8944C38.5835 44.2178 35.3746 46.4057 31.8 46.4057H22.2043C18.6297 46.4057 15.4209 44.2178 14.1211 40.8944L12.3027 36.2448C10.7682 32.3213 12.2844 27.8649 15.8955 25.6852L22.5117 21.6916Z" fill="#B94C7B"/>
<path d="M11.4063 11.19C13.7805 14.465 13.5144 18.7019 10.812 20.6533C8.10969 22.6047 3.99437 21.5316 1.62021 18.2566C-0.75394 14.9815 -0.48788 10.7447 2.21447 8.79327C4.91683 6.84189 9.03215 7.91493 11.4063 11.19Z" fill="#B94C7B"/>
<path d="M25.1256 5.16853C26.7024 8.89195 25.4901 12.9611 22.4178 14.2571C19.3455 15.5532 15.5766 13.5854 13.9997 9.86201C12.4229 6.13859 13.6352 2.06949 16.7075 0.773421C19.7798 -0.522649 23.5487 1.44511 25.1256 5.16853Z" fill="#B94C7B"/>
<path d="M29.1342 4.79381C27.5574 8.51723 28.7697 12.5863 31.842 13.8824C34.9143 15.1785 38.6832 13.2107 40.2601 9.4873C41.8369 5.76388 40.6246 1.69477 37.5523 0.398704C34.48 -0.897366 30.7111 1.07039 29.1342 4.79381Z" fill="#B94C7B"/>
<path d="M43.5937 11.1989C41.2195 14.474 41.4856 18.7109 44.188 20.6623C46.8903 22.6136 51.0056 21.5406 53.3798 18.2655C55.7539 14.9905 55.4879 10.7536 52.7855 8.80223C50.0832 6.85085 45.9678 7.92389 43.5937 11.1989Z" fill="#B94C7B"/>
</svg>
